# xmcd
#
# Track frame offsets:
#	150
#	19867
#	38347
#	54849
#	73967
#	88332
#	100990
#	116224
#	135229
#	147714
#	166333
#	183185
#
# Disc length: 2610 seconds
#
# Revision: 1
# Processed by: cddbd v1.5.2PL0 Copyright (c) Steve Scherf et al.
# Submitted via: audiograbber 1.83.01
#
DISCID=a50a300c
DTITLE=Various Artist - Street Beats 805 CD2
DYEAR=2004
DGENRE=R&B
TTITLE0=Xzibit - Hey Now (Mean Muggin') Ft Keri Hilson
TTITLE1=Beverley Knight - Keep This Fire Burning (Stargate Club Mix)
TTITLE2=Houston - Ain't Nothing Wrong (Full Phatt Remix)
TTITLE3=Nelly - Over and Over
TTITLE4=The Strange Fruit Project - Waitin'
TTITLE5=The Plant Life - Luv 4 The World (Why They Gotta Hate)
TTITLE6=EPMD, Redman and Das Efx - Serious
TTITLE7=GB - Simply So Ft Steve Spacek (Sa-Ra Remix)
TTITLE8=Kev Brown - Look Ft Isaac Jones
TTITLE9=Conya Doss - Damn That
TTITLE10=Wayne Williams - Party Party II
TTITLE11=Macka Diamond - Move Up Time
EXTD=
EXTT0=
EXTT1=
EXTT2=
EXTT3=
EXTT4=
EXTT5=
EXTT6=
EXTT7=
EXTT8=
EXTT9=
EXTT10=
EXTT11=
PLAYORDER=
